<?xml version="1.0" standalone="no"?>
<!DOCTYPE svg PUBLIC "-//W3C//DTD SVG 20010904//EN"
 "http://www.w3.org/TR/2001/REC-SVG-20010904/DTD/svg10.dtd">
<svg version="1.0" xmlns="http://www.w3.org/2000/svg"
 width="512.000000pt" height="512.000000pt" viewBox="0 0 512.000000 512.000000"
 preserveAspectRatio="xMidYMid meet">
<metadata>
Created by potrace 1.16, written by Peter Selinger 2001-2019
</metadata>
<g transform="translate(0.000000,512.000000) scale(0.100000,-0.100000)"
fill="#000000" stroke="none">
<path d="M2345 4913 c-439 -54 -854 -221 -1205 -486 -190 -144 -399 -374 -534
-591 -350 -559 -431 -1262 -216 -1871 38 -107 98 -235 109 -235 5 0 57 -34
116 -75 59 -41 109 -75 111 -75 2 0 -8 17 -22 38 -67 97 -167 327 -214 489
-50 177 -71 311 -77 503 -31 1000 626 1851 1632 2111 303 79 645 89 962 28
198 -38 450 -127 613 -217 274 -150 551 -403 717 -652 203 -306 330 -649 365
-992 l12 -108 68 0 68 0 0 40 c0 143 -72 461 -146 650 -159 401 -412 740 -740
992 -296 226 -706 395 -1077 443 -107 14 -455 19 -542 8z m520 -99 c56 -9 63
-12 25 -9 -187 16 -421 17 -549 1 -148 -18 -186 -16 -64 4 190 30 418 32 588
4z m118 -21 c-7 -2 -19 -2 -25 0 -7 3 -2 5 12 5 14 0 19 -2 13 -5z m-806 -9
c-3 -3 -12 -4 -19 -1 -8 3 -5 6 6 6 11 1 17 -2 13 -5z m850 0 c-3 -3 -12 -4
-19 -1 -8 3 -5 6 6 6 11 1 17 -2 13 -5z"/>
<path d="M2340 4364 c-116 -16 -289 -59 -390 -98 -161 -60 -367 -171 -440
-235 -21 -19 2 -8 60 29 122 78 287 159 416 203 386 134 733 128 1068 -19 113
-49 264 -135 328 -186 l41 -32 -8 59 c-12 97 -16 102 -117 150 -115 53 -220
89 -341 116 -123 28 -461 35 -617 13z"/>
<path d="M2390 4224 c-104 -9 -252 -38 -350 -70 -138 -46 -342 -148 -460 -231
-123 -87 -346 -310 -433 -433 -127 -179 -227 -412 -268 -621 -22 -117 -33
-325 -21 -394 8 -42 10 -28 11 88 2 258 53 473 165 696 49 96 163 262 244 355
242 277 631 492 1009 556 126 22 367 27 483 10 35 -5 66 -7 68 -5 8 7 -108 26
-223 35 -66 5 -133 11 -150 13 -16 2 -50 3 -75 1z"/>
<path d="M2620 4067 c3 -3 41 -10 86 -16 100 -14 268 -57 439 -111 71 -22 143
-40 160 -38 30 3 30 3 -25 39 -67 44 -165 84 -257 105 -64 14 -414 33 -403 21z"/>
<path d="M3570 4023 c164 -138 306 -298 409 -458 28 -44 51 -77 51 -72 0 12
-97 164 -147 230 -62 81 -245 263 -308 305 l-50 33 45 -38z"/>
<path d="M1353 3992 c-100 -84 -259 -257 -339 -369 -169 -238 -284 -551 -301
-820 l-6 -93 30 0 30 0 6 -162 c4 -90 11 -179 16 -198 8 -26 8 -15 3 45 -11
125 -7 381 6 475 54 361 218 711 439 937 104 106 187 173 215 173 19 0 19 1
-2 30 -12 17 -25 30 -30 30 -5 0 -35 -22 -67 -48z"/>
<path d="M2390 3914 c-14 -3 -58 -12 -99 -20 -58 -13 -78 -13 -96 -4 -18 10
-35 6 -106 -23 -234 -94 -457 -275 -604 -490 -55 -81 -55 -81 -33 -93 61 -31
64 -30 116 48 133 195 265 309 485 417 69 35 165 72 222 88 92 25 114 27 290
27 220 0 307 -16 451 -83 101 -47 112 -45 17 3 -202 101 -293 126 -478 131
-77 2 -151 2 -165 -1z"/>
<path d="M2520 3781 l0 -69 -79 -11 c-104 -15 -207 -44 -288 -81 -36 -17 -70
-30 -74 -30 -5 0 -23 25 -40 55 -32 56 -46 72 -56 61 -7 -7 5 -33 41 -92 l25
-41 -70 -48 c-38 -26 -115 -96 -169 -154 l-100 -106 -44 24 c-45 23 -66 22
-66 -5 0 -8 5 -12 11 -9 5 4 26 -4 44 -17 58 -39 41 -50 -35 -23 -51 18 -47
18 -53 0 -4 -9 8 -21 38 -36 25 -13 45 -26 45 -31 0 -14 -14 -9 -53 17 -34 24
-57 26 -57 6 0 -4 19 -18 43 -31 23 -13 44 -24 46 -26 5 -4 -32 -84 -40 -84
-3 0 -23 7 -44 16 -20 8 -42 13 -48 11 -7 -2 11 -12 38 -22 28 -10 51 -19 53
-20 1 -1 -2 -14 -7 -28 -9 -22 -14 -25 -33 -18 -44 16 -78 21 -78 12 0 -5 17
-12 38 -16 55 -9 63 -16 53 -50 -8 -32 -25 -36 -88 -21 -21 5 -33 4 -33 -2 0
-6 24 -16 53 -22 53 -11 53 -11 49 -45 -4 -35 -4 -35 -46 -29 -22 3 -47 7 -53
10 -7 2 -13 -1 -13 -6 0 -10 23 -17 70 -22 17 -2 26 -10 28 -25 3 -22 0 -23
-52 -23 -31 0 -56 -4 -56 -10 0 -5 25 -10 55 -10 30 0 55 -4 55 -10 0 -5 4
-10 8 -10 5 0 14 43 20 95 7 52 23 129 37 172 31 96 96 228 113 229 6 1 17 2
23 3 6 0 9 10 6 20 -10 39 153 210 283 297 61 41 66 43 74 25 10 -24 28 -32
45 -21 10 6 10 12 0 28 -17 27 -11 32 71 64 226 89 489 84 725 -11 51 -21 69
-33 67 -45 -4 -23 26 -32 41 -12 11 15 17 13 63 -18 75 -51 169 -140 237 -226
33 -41 63 -75 66 -75 14 0 85 65 78 71 -4 4 -22 -1 -41 -11 -35 -19 -66 -15
-66 8 0 8 18 27 40 42 22 15 38 30 35 33 -3 3 -24 -8 -47 -25 l-42 -30 -85 87
c-47 48 -103 100 -124 116 l-39 30 22 37 c12 20 17 37 12 37 -6 0 -19 -13 -29
-30 -9 -16 -23 -30 -30 -30 -26 0 -23 23 7 70 30 47 33 70 7 70 -7 0 -28 -25
-46 -55 -18 -30 -37 -55 -41 -55 -4 0 -32 11 -61 24 -72 33 -194 64 -306 78
l-93 12 0 68 c0 61 -2 68 -20 68 -18 0 -20 -7 -20 -69z"/>
<path d="M2590 3785 c0 -51 3 -65 15 -65 12 0 15 14 15 65 0 51 -3 65 -15 65
-12 0 -15 -14 -15 -65z"/>
<path d="M2435 3827 c-10 -24 4 -112 16 -100 6 6 6 31 1 64 -6 38 -11 49 -17
36z"/>
<path d="M2686 3785 c-8 -49 2 -82 15 -49 11 27 11 94 0 94 -5 0 -12 -20 -15
-45z"/>
<path d="M2321 3778 c1 -47 11 -69 27 -59 11 6 11 17 2 50 -13 49 -30 54 -29
9z"/>
<path d="M3425 3766 l-50 -44 30 -22 c54 -41 187 -183 237 -255 56 -79 134
-229 168 -323 23 -62 24 -64 54 -58 65 13 106 27 106 36 0 16 -58 157 -96 233
-74 146 -218 334 -332 432 -30 25 -57 45 -60 45 -4 0 -29 -20 -57 -44z"/>
<path d="M2765 3759 c-4 -22 -4 -43 -1 -46 7 -7 26 42 26 68 0 35 -18 20 -25
-22z"/>
<path d="M2860 3745 c-13 -48 -7 -74 8 -34 19 51 22 68 14 73 -5 3 -15 -15
-22 -39z"/>
<path d="M2210 3774 c0 -19 24 -84 32 -84 11 0 10 21 -3 59 -9 27 -29 44 -29
25z"/>
<path d="M2110 3738 c0 -24 29 -88 40 -88 5 0 2 19 -7 43 -19 49 -33 68 -33
45z"/>
<path d="M2955 3717 c-19 -45 -19 -53 -1 -38 15 13 30 60 22 69 -3 3 -13 -11
-21 -31z"/>
<path d="M3230 3681 c14 -12 34 -27 45 -33 17 -9 18 -9 8 3 -6 8 -26 22 -45
32 l-33 19 25 -21z"/>
<path d="M1920 3627 c0 -2 11 -18 25 -37 27 -37 35 -24 9 15 -13 21 -34 34
-34 22z"/>
<path d="M1849 3563 c5 -10 22 -29 37 -43 l28 -25 -30 42 c-29 42 -54 60 -35
26z"/>
<path d="M3228 3563 c-30 -36 -30 -47 0 -19 18 17 32 31 32 33 0 9 -19 1 -32
-14z"/>
<path d="M3271 3524 c-29 -37 -26 -55 4 -21 23 25 32 47 21 47 -3 0 -14 -12
-25 -26z"/>
<path d="M1795 3480 c10 -11 20 -18 23 -15 7 6 -18 35 -31 35 -5 0 -2 -9 8
-20z"/>
<path d="M3315 3470 c-16 -16 -26 -32 -24 -35 3 -2 21 11 39 30 19 19 29 35
24 35 -6 0 -23 -13 -39 -30z"/>
<path d="M3369 3404 c-21 -23 -26 -33 -14 -26 25 12 60 50 53 57 -2 3 -20 -12
-39 -31z"/>
<path d="M1674 3408 c-14 -17 -15 -19 -2 -10 13 11 21 11 40 1 23 -12 23 -12
4 10 -11 11 -20 21 -21 21 -1 0 -10 -10 -21 -22z"/>
<path d="M1645 3369 c-4 -6 -5 -11 -4 -12 2 -2 13 -9 24 -17 19 -14 19 -14 2
6 -9 11 -14 24 -10 27 3 4 4 7 0 7 -3 0 -9 -5 -12 -11z"/>
<path d="M3599 3250 c172 -326 187 -750 37 -1076 -99 -213 -288 -418 -538
-584 -191 -126 -342 -170 -590 -170 -284 0 -504 76 -716 248 -40 33 -42 36
-26 53 15 17 12 23 -60 101 -185 200 -301 432 -337 678 -15 107 -6 331 19 458
25 123 7 115 -35 -16 -101 -314 -82 -570 65 -855 104 -203 261 -372 477 -513
279 -181 535 -245 800 -199 112 20 309 78 392 115 228 103 502 353 635 577 46
78 109 226 122 289 l7 31 -61 7 c-60 7 -62 8 -56 32 4 14 11 77 15 141 17 226
-19 434 -107 616 -27 56 -57 111 -66 122 -9 11 2 -14 23 -55z"/>
<path d="M3459 3240 c-26 -16 -50 -26 -53 -23 -16 17 -2 -13 33 -67 59 -91
110 -264 111 -372 l0 -48 65 0 c37 0 65 4 65 10 0 6 -25 10 -55 10 -48 0 -55
2 -55 20 0 17 7 20 50 20 28 0 50 5 50 10 0 6 -22 10 -49 10 -42 0 -49 3 -55
23 -12 46 -7 54 39 66 60 15 57 23 -5 15 -39 -5 -50 -4 -50 7 0 8 -3 23 -6 34
-4 17 2 22 42 33 26 7 44 15 41 18 -3 3 -24 0 -46 -7 -46 -14 -47 -14 -56 22
-5 22 -3 27 17 32 13 4 32 13 43 21 18 14 16 14 -24 1 -50 -17 -65 -12 -58 21
2 13 0 22 -6 21 -27 -6 -13 23 23 47 55 36 41 54 -17 21 -63 -35 -76 -19 -15
19 41 26 48 35 40 49 -12 22 -15 22 -69 -13z"/>
<path d="M1858 3216 c-10 -7 -18 -17 -18 -22 0 -18 515 -524 533 -524 15 0 16
-3 6 -21 -7 -14 -14 -18 -18 -10 -10 15 -30 -8 -138 -159 -106 -148 -388 -581
-388 -595 0 -6 -10 -24 -22 -41 -30 -42 -18 -50 16 -12 l28 31 89 -68 c49 -37
90 -70 91 -74 2 -3 -13 -31 -32 -61 -23 -37 -30 -57 -22 -62 16 -10 22 -4 57
57 21 36 36 52 45 48 12 -4 7 -19 -22 -70 -29 -53 -33 -67 -22 -74 16 -10 39
16 65 74 9 20 21 37 27 37 5 0 40 -11 77 -24 78 -29 213 -56 274 -56 l41 0 -3
-60 c-4 -71 1 -92 23 -84 11 5 15 22 15 75 l0 69 40 0 c77 0 247 44 362 94 11
5 18 2 22 -11 9 -28 53 -79 61 -71 4 4 -5 28 -20 54 -18 30 -24 49 -17 56 6 6
21 -9 43 -45 20 -34 38 -53 46 -50 19 8 16 20 -16 74 l-30 47 22 15 c20 13 23
11 51 -27 16 -22 31 -35 33 -29 3 7 -7 28 -21 46 l-26 34 33 26 34 26 31 -32
c17 -17 34 -28 38 -24 3 3 -7 20 -23 36 l-30 30 36 35 37 36 29 -30 c16 -16
36 -30 44 -30 10 0 3 13 -21 36 l-36 37 45 56 c25 31 48 59 52 63 4 4 24 -4
44 -18 21 -14 42 -22 47 -19 16 10 11 33 -7 39 -35 12 -64 41 -58 58 7 17 29
18 42 3 4 -4 2 -5 -6 0 -10 6 -12 4 -7 -4 5 -7 15 -10 24 -6 9 3 13 3 9 -1 -8
-8 11 -34 25 -34 6 0 6 6 -1 14 -10 12 -9 13 8 9 13 -3 23 2 30 16 10 18 7 23
-31 47 -55 34 -53 33 -41 45 6 6 25 3 57 -11 54 -23 56 -23 56 -11 0 5 -22 18
-50 30 -35 15 -48 26 -44 36 8 19 21 19 73 0 23 -8 41 -10 41 -5 0 6 -21 16
-46 22 -43 12 -45 14 -40 42 4 16 8 32 11 34 2 3 25 -1 50 -8 25 -7 48 -10 51
-7 3 2 -18 11 -45 18 -45 11 -50 15 -45 33 10 33 17 36 54 26 19 -6 42 -10 50
-10 27 0 -10 18 -53 26 -34 5 -38 9 -33 28 3 11 6 25 6 29 0 7 51 2 94 -10 11
-3 16 -1 12 5 -3 6 -29 13 -57 17 -39 5 -49 10 -45 22 3 8 6 19 6 24 0 5 26
10 58 10 l57 2 -57 9 c-52 9 -58 13 -58 34 0 23 3 24 60 24 47 0 60 3 60 15 0
13 -12 15 -67 13 l-68 -3 -7 -80 c-13 -144 -75 -314 -158 -435 -9 -14 -20 -37
-24 -53 -4 -16 -47 -69 -104 -126 -94 -96 -204 -177 -319 -235 -75 -38 -216
-76 -305 -83 l-78 -6 0 62 c0 48 -3 61 -15 61 -12 0 -15 -13 -15 -61 l0 -62
-68 6 c-148 12 -327 76 -435 154 -75 54 -137 106 -137 115 0 4 124 172 275
373 151 201 275 372 275 379 0 7 -9 21 -20 31 -27 24 -25 51 5 81 32 32 32 48
0 40 -23 -6 -50 16 -233 181 -327 297 -294 272 -324 249z"/>
<path d="M2919 3068 c-101 -74 -226 -165 -277 -203 -66 -50 -99 -69 -117 -67
-16 2 -27 -4 -35 -18 -10 -19 -8 -24 9 -37 32 -22 26 -57 -19 -108 -45 -53
-54 -82 -12 -43 15 14 37 31 50 37 12 6 22 17 22 24 0 7 44 44 98 82 168 119
519 382 527 395 9 14 -25 64 -47 68 -8 2 -98 -57 -199 -130z"/>
<path d="M3534 3134 c-18 -14 -18 -15 4 -4 12 6 22 13 22 15 0 8 -5 6 -26 -11z"/>
<path d="M1520 3123 c8 -3 27 -12 43 -20 15 -7 27 -11 27 -9 0 8 -58 36 -72
35 -9 0 -8 -2 2 -6z"/>
<path d="M1700 3076 c0 -7 7 -19 15 -26 19 -15 47 4 38 26 -7 18 -53 19 -53 0z"/>
<path d="M3364 3079 c-3 -6 1 -18 9 -27 13 -12 19 -13 31 -3 8 7 12 19 9 27
-6 17 -39 19 -49 3z"/>
<path d="M4171 2979 c-1 -9 4 -41 9 -70 19 -96 28 -324 19 -441 -17 -210 -100
-469 -201 -623 l-20 -30 22 25 c25 28 86 146 124 239 83 205 113 453 85 709
-10 96 -36 223 -38 191z"/>
<path d="M2430 2715 c-18 -21 -5 -47 22 -43 31 4 40 58 10 58 -11 0 -25 -7
-32 -15z"/>
<path d="M3503 2693 c-73 -3 -93 -7 -93 -18 0 -12 23 -15 135 -15 128 0 135 1
135 20 0 17 -6 20 -42 18 -24 -1 -85 -4 -135 -5z"/>
<path d="M1410 2673 c0 -16 12 -18 135 -15 110 3 135 6 135 18 0 11 -24 14
-135 14 -122 0 -135 -2 -135 -17z"/>
<path d="M1410 2615 c0 -12 13 -15 60 -15 57 0 60 -1 60 -24 0 -21 -6 -25 -57
-34 l-58 -9 60 -2 c60 -1 61 -1 63 -31 2 -29 1 -30 -40 -30 -24 0 -50 -5 -58
-11 -11 -7 0 -8 39 -3 40 5 56 3 62 -7 20 -33 10 -46 -48 -59 -32 -7 -52 -15
-45 -18 7 -2 34 1 59 7 52 14 49 14 58 -20 6 -24 3 -27 -39 -39 -25 -7 -46
-16 -46 -21 0 -4 20 -1 46 8 51 17 50 17 59 -18 6 -24 3 -27 -39 -39 -25 -7
-46 -16 -46 -21 0 -4 15 -3 33 3 17 5 39 12 48 15 10 3 19 -3 23 -13 8 -20 12
-17 -47 -42 -30 -13 -46 -26 -42 -33 8 -12 21 -9 77 15 53 23 55 3 3 -26 -40
-22 -44 -26 -32 -42 13 -18 15 -17 55 3 49 25 48 25 56 6 3 -10 -9 -23 -39
-41 -39 -22 -43 -28 -35 -45 13 -24 15 -24 54 6 18 14 39 25 47 25 8 0 33 -23
54 -51 22 -28 45 -58 52 -66 6 -8 17 -12 23 -8 8 5 2 17 -18 39 -46 50 -84
104 -78 114 3 5 -4 16 -15 25 -10 9 -19 24 -19 33 0 10 -6 14 -14 11 -9 -4
-25 19 -50 71 -50 108 -64 160 -78 290 l-12 112 -68 0 c-54 0 -68 -3 -68 -15z"/>
<path d="M4677 2360 c-3 -19 -11 -78 -17 -130 -26 -206 -93 -414 -204 -635
-85 -166 -158 -279 -261 -397 -75 -88 -97 -122 -49 -77 57 53 179 213 240 316
157 261 254 530 290 805 14 110 15 198 1 118z"/>
<path d="M871 2313 l-63 -15 6 -42 c10 -61 62 -209 107 -305 88 -188 220 -379
364 -525 68 -69 84 -91 80 -109 -5 -19 9 -32 97 -93 142 -98 245 -156 363
-203 188 -75 370 -111 558 -111 l117 0 0 45 c0 25 -3 45 -7 45 -422 14 -704
103 -985 312 -68 50 -68 50 -68 99 0 27 2 49 6 49 3 0 35 -24 72 -54 143 -116
318 -212 492 -271 181 -62 239 -70 500 -70 206 1 247 3 335 23 469 105 858
387 1076 781 62 111 125 260 133 316 5 28 -2 16 -22 -40 -37 -103 -116 -258
-184 -362 -226 -345 -595 -591 -1028 -684 -142 -31 -468 -34 -600 -6 -201 43
-385 119 -550 227 -129 85 -179 128 -282 245 -184 206 -308 427 -377 665 -31
109 -31 109 -140 83z"/>
<path d="M4800 2269 c0 -98 -84 -412 -155 -581 -18 -43 -30 -78 -26 -78 16 0
104 163 135 251 36 99 80 284 91 382 7 57 7 57 -19 57 -22 0 -26 -4 -26 -31z"/>
<path d="M1667 2263 c-12 -11 -7 -33 8 -39 20 -8 45 13 38 32 -5 14 -34 19
-46 7z"/>
<path d="M3377 2264 c-4 -4 -7 -16 -7 -26 0 -14 6 -19 23 -16 14 2 22 10 22
23 0 20 -25 32 -38 19z"/>
<path d="M1697 1971 c-21 -16 -34 -31 -30 -34 5 -3 27 10 48 28 49 42 35 46
-18 6z"/>
<path d="M3351 1991 c3 -8 20 -26 39 -40 19 -15 31 -20 29 -12 -3 8 -20 26
-39 40 -19 15 -31 20 -29 12z"/>
<path d="M1750 1910 c-21 -18 -28 -30 -19 -30 8 0 28 14 44 30 37 38 21 38
-25 0z"/>
<path d="M1795 1870 c-10 -11 -16 -22 -13 -25 3 -3 13 6 22 20 20 30 16 32 -9
5z"/>
<path d="M2911 1786 c-9 -11 -8 -17 5 -30 21 -22 39 -15 39 15 0 28 -26 37
-44 15z"/>
<path d="M2127 1776 c-6 -15 11 -36 29 -36 14 0 27 28 18 41 -8 14 -41 11 -47
-5z"/>
<path d="M1867 1745 c-31 -38 -23 -49 10 -12 26 29 36 47 26 47 -4 0 -21 -16
-36 -35z"/>
<path d="M1940 1705 c-31 -50 -20 -65 13 -17 15 23 23 44 18 47 -5 3 -19 -11
-31 -30z"/>
<path d="M610 1612 c0 -37 238 -371 252 -352 1 3 18 22 37 42 l34 37 -56 68
c-30 37 -73 84 -94 104 -41 39 -173 116 -173 101z"/>
<path d="M2147 1582 c-20 -49 -20 -52 -8 -52 11 0 34 66 29 82 -3 7 -12 -7
-21 -30z"/>
<path d="M2890 1601 c0 -5 6 -24 14 -42 11 -25 16 -30 21 -18 7 19 -11 69 -25
69 -5 0 -10 -4 -10 -9z"/>
<path d="M2260 1566 c0 -7 -3 -29 -6 -47 -5 -24 -3 -31 4 -24 16 15 27 85 13
85 -6 0 -11 -6 -11 -14z"/>
<path d="M2785 1548 c9 -39 13 -48 25 -48 4 0 3 18 -2 40 -12 48 -33 55 -23 8z"/>
<path d="M2590 1511 c0 -52 3 -61 18 -61 15 0 17 7 12 57 -7 80 -30 84 -30 4z"/>
<path d="M2346 1519 c-6 -40 -2 -59 10 -46 3 3 8 24 11 46 7 54 -12 54 -21 0z"/>
<path d="M2689 1518 c3 -23 12 -43 20 -46 11 -4 13 3 8 28 -4 18 -7 39 -7 46
0 8 -6 14 -13 14 -10 0 -12 -11 -8 -42z"/>
<path d="M2440 1500 c0 -27 5 -50 10 -50 6 0 10 23 10 50 0 28 -4 50 -10 50
-5 0 -10 -22 -10 -50z"/>
<path d="M4599 1473 c-30 -32 -109 -123 -176 -203 -66 -80 -170 -194 -231
-254 l-112 -108 35 -35 34 -34 85 89 c119 123 206 230 287 351 69 102 144 239
136 247 -2 2 -28 -22 -58 -53z"/>
<path d="M531 1394 c-1 -17 130 -195 220 -300 86 -100 247 -257 282 -275 12
-6 -26 34 -85 90 -142 135 -283 301 -400 471 -9 14 -17 20 -17 14z"/>
<path d="M1022 1049 c8 -23 205 -184 323 -264 367 -247 757 -367 1195 -368
401 0 752 79 1075 242 152 77 336 192 317 199 -5 1 -47 -21 -93 -51 -111 -72
-295 -166 -424 -217 -282 -110 -677 -169 -991 -149 -305 19 -541 81 -809 214
-168 83 -304 170 -444 284 -52 42 -108 87 -124 100 -18 15 -28 19 -25 10z"/>
<path d="M1112 809 l-22 -28 57 -44 c319 -245 736 -415 1117 -457 100 -11 149
-7 59 5 -308 40 -527 103 -778 225 -125 61 -329 187 -410 253 -30 25 -30 25
-11 46 11 12 17 23 15 25 -2 2 -14 -9 -27 -25z"/>
<path d="M3825 623 c-22 -13 -94 -51 -160 -84 -99 -49 -136 -62 -213 -75 -52
-8 -162 -32 -245 -53 -84 -21 -208 -46 -277 -56 -69 -9 -140 -19 -157 -21 -29
-4 -33 -9 -33 -34 0 -17 2 -30 4 -30 2 0 50 5 107 11 220 22 447 79 660 164
111 45 308 151 344 186 25 24 19 23 -30 -8z"/>
</g>
</svg>