<?xml version="1.0" standalone="no"?>
<!DOCTYPE svg PUBLIC "-//W3C//DTD SVG 20010904//EN"
 "http://www.w3.org/TR/2001/REC-SVG-20010904/DTD/svg10.dtd">
<svg version="1.0" xmlns="http://www.w3.org/2000/svg"
 width="512.000000pt" height="512.000000pt" viewBox="0 0 512.000000 512.000000"
 preserveAspectRatio="xMidYMid meet">
<metadata>
Created by potrace 1.16, written by Peter Selinger 2001-2019
</metadata>
<g transform="translate(0.000000,512.000000) scale(0.100000,-0.100000)"
fill="#000000" stroke="none">
<path d="M2860 4125 c-7 -8 -10 -24 -7 -36 3 -11 1 -34 -5 -50 -7 -21 -7 -33
2 -44 6 -7 62 -30 123 -51 134 -44 276 -112 382 -183 77 -52 77 -52 110 -37
18 9 37 16 42 16 12 1 53 37 53 48 0 27 -215 172 -353 237 -87 41 -234 94
-303 109 -22 5 -35 2 -44 -9z m137 -56 c172 -54 402 -178 503 -269 l35 -32
-35 25 c-79 58 -230 148 -311 186 -92 43 -258 101 -290 101 -10 0 -19 5 -19
10 0 15 11 13 117 -21z"/>
<path d="M2410 3982 c-28 -6 -36 -12 -38 -33 l-3 -25 166 4 c160 4 165 4 165
-16 0 -17 10 -21 82 -32 168 -24 375 -104 524 -201 33 -21 67 -39 76 -39 15 0
48 30 48 43 0 13 -155 109 -255 158 -110 53 -249 101 -364 125 -81 16 -345 27
-401 16z"/>
<path d="M2105 3945 c-375 -111 -681 -353 -894 -704 -28 -46 -51 -88 -51 -93
0 -17 28 -7 55 22 16 17 37 30 46 30 11 0 38 30 70 78 198 295 462 500 769
597 109 34 115 37 115 66 0 32 -16 32 -110 4z"/>
<path d="M2295 3804 c-117 -21 -228 -57 -330 -108 -89 -44 -139 -75 -120 -76
6 0 25 9 44 21 59 36 247 108 333 129 303 71 633 31 888 -108 236 -129 404
-294 505 -497 44 -91 101 -252 92 -261 -3 -3 -8 5 -12 18 -17 53 -97 203 -156
290 -181 264 -470 451 -796 514 -118 23 -339 24 -453 1 -502 -99 -834 -383
-992 -847 -62 -182 -85 -440 -54 -602 17 -86 65 -223 100 -283 25 -41 25 -43
6 -48 -12 -3 -24 3 -34 18 -23 35 -63 134 -79 199 -17 65 -23 73 -52 78 -19 3
-20 -2 -17 -74 5 -123 -18 -101 -59 57 -21 79 -24 112 -24 272 l1 182 -25 6
c-13 3 -28 2 -34 -4 -15 -15 -26 -86 -33 -216 -10 -190 28 -381 116 -593 65
-155 180 -332 216 -332 8 0 36 16 63 35 26 19 62 38 78 41 26 5 36 -1 89 -56
165 -174 410 -319 636 -379 471 -123 990 53 1303 442 263 326 346 652 278
1091 -48 316 -167 561 -364 751 -188 181 -413 296 -666 340 -108 19 -340 18
-448 -1z m425 -149 c416 -68 758 -348 907 -746 47 -124 64 -215 70 -361 14
-340 -102 -633 -350 -880 -232 -233 -515 -361 -827 -375 -399 -17 -798 185
-1040 529 -73 104 -154 259 -186 358 -36 111 -41 281 -10 345 l20 40 7 -103
c9 -126 23 -193 61 -302 124 -352 421 -650 762 -766 213 -73 500 -73 713 0
264 90 495 270 627 490 50 83 45 92 -6 15 -88 -132 -277 -296 -448 -388 -301
-161 -674 -173 -978 -31 -343 161 -589 472 -657 833 -21 111 -19 300 4 412 47
228 166 433 358 616 120 115 234 187 399 252 183 73 378 93 574 62z m-920
-189 c0 -2 -8 -10 -17 -17 -16 -13 -17 -12 -4 4 13 16 21 21 21 13z m-50 -39
c0 -1 -39 -41 -87 -87 l-88 -85 85 88 c79 81 90 92 90 84z m-170 -180 c0 -2
-10 -12 -22 -23 l-23 -19 19 23 c18 21 26 27 26 19z m-76 -102 c-20 -30 -39
-55 -41 -55 -5 0 3 14 39 68 16 23 31 42 34 42 2 0 -12 -25 -32 -55z"/>
<path d="M2540 3625 c0 -10 7 -15 18 -13 21 4 19 22 -2 26 -10 2 -16 -3 -16
-13z"/>
<path d="M2488 3569 c-22 -12 -24 -44 -3 -36 12 5 15 -13 17 -111 2 -96 6
-117 18 -117 12 0 16 21 18 115 4 157 -3 177 -50 149z"/>
<path d="M2630 3563 c-22 -9 -30 -24 -30 -60 0 -26 4 -33 19 -33 15 0 21 8 23
33 4 47 32 43 36 -6 3 -33 -2 -43 -52 -96 -58 -60 -70 -91 -37 -91 15 0 21 -8
24 -37 l4 -38 1 38 2 37 45 0 c33 0 45 4 45 15 0 11 -12 15 -46 15 l-47 0 52
54 c45 49 51 60 51 99 0 63 -36 90 -90 70z"/>
<path d="M2016 3501 c-9 -14 4 -41 19 -41 21 0 28 19 15 35 -14 17 -26 19 -34
6z"/>
<path d="M3050 3495 c-10 -11 -10 -19 -2 -27 15 -15 44 -2 40 19 -4 23 -22 27
-38 8z"/>
<path d="M2062 3438 c-15 -15 -16 -48 -2 -48 6 0 10 -25 10 -55 0 -43 3 -55
15 -55 13 0 15 14 13 82 -3 80 -12 100 -36 76z"/>
<path d="M2991 3381 c-34 -50 -39 -62 -26 -67 27 -11 99 96 78 117 -8 8 -22
-5 -52 -50z"/>
<path d="M2200 3409 c0 -40 14 -109 23 -109 12 0 2 83 -13 108 -8 15 -9 15
-10 1z"/>
<path d="M2175 3254 c-28 -15 -69 -40 -92 -56 -54 -36 -173 -156 -173 -174 0
-7 13 -22 30 -34 l29 -21 -38 -59 c-65 -101 -86 -183 -86 -340 0 -122 3 -143
28 -217 76 -221 267 -398 482 -449 87 -20 288 -15 352 9 36 14 43 14 54 1 16
-19 36 -17 86 9 l43 22 -21 39 -20 38 60 54 c73 66 147 174 189 277 35 82 39
107 20 107 -7 0 -22 3 -33 6 -18 5 -23 -3 -39 -53 -42 -132 -116 -240 -216
-313 -30 -22 -60 -44 -66 -49 -7 -6 -17 8 -29 43 -10 28 -49 127 -86 220 l-67
168 18 32 c10 17 21 46 25 64 5 25 29 55 88 110 236 223 507 485 507 491 0 3
-9 17 -19 30 l-18 24 -44 -26 c-41 -25 -203 -168 -463 -410 -109 -102 -134
-114 -147 -67 -4 14 -7 18 -8 9 -1 -9 -23 -27 -51 -41 -27 -14 -45 -19 -38
-11 6 7 9 15 7 17 -2 2 -62 40 -132 85 -103 66 -132 80 -143 70 -29 -23 -11
-46 106 -134 l120 -90 0 -48 c0 -43 5 -54 35 -84 33 -33 38 -35 89 -31 31 2
52 -1 49 -6 -4 -5 0 -6 7 -1 10 6 12 4 7 -9 -5 -11 -3 -15 5 -10 8 5 9 2 5 -9
-4 -10 -2 -17 4 -17 6 0 9 -7 5 -15 -3 -8 -1 -15 5 -15 6 0 7 -4 4 -10 -3 -5
-1 -10 5 -10 7 0 9 -7 6 -16 -4 -10 -2 -13 6 -8 8 5 9 2 5 -9 -3 -10 -2 -17 3
-17 5 0 6 -7 3 -17 -5 -12 -3 -14 7 -8 10 6 12 4 7 -8 -4 -10 -2 -17 4 -17 6
0 8 -7 5 -16 -4 -10 -2 -13 6 -8 8 5 9 0 5 -15 -3 -13 -3 -20 0 -17 7 7 84
-188 86 -218 2 -15 -10 -24 -51 -38 -163 -57 -361 -36 -513 55 -290 172 -394
593 -213 866 31 45 35 58 25 73 -24 39 98 167 211 221 39 18 46 26 41 45 -4
16 -1 22 12 22 12 0 15 5 11 16 -3 9 -6 18 -6 20 0 13 -52 0 -95 -22z m910
-155 c-22 -22 -105 -100 -185 -172 -80 -73 -173 -159 -207 -191 -35 -33 -66
-56 -70 -52 -4 3 9 19 28 35 19 16 131 117 249 224 118 108 217 196 220 197 2
0 -14 -18 -35 -41z m-536 -511 c13 -35 2 -49 -33 -46 -20 2 -32 9 -34 21 -8
43 52 65 67 25z m225 -574 c3 -8 2 -12 -4 -9 -6 3 -10 10 -10 16 0 14 7 11 14
-7z"/>
<path d="M2515 3240 c-4 -6 -3 -16 3 -22 6 -6 12 -6 17 2 4 6 3 16 -3 22 -6 6
-12 6 -17 -2z"/>
<path d="M2595 3175 c-3 -31 -5 -59 -2 -61 3 -3 8 20 12 51 3 31 5 59 2 61 -3
3 -8 -20 -12 -51z"/>
<path d="M1652 3117 c-36 -25 -43 -48 -12 -40 19 5 20 0 20 -92 0 -86 2 -96
18 -93 15 3 17 17 20 104 1 55 -1 110 -5 122 l-8 22 -33 -23z"/>
<path d="M1742 3118 c-8 -8 -12 -45 -12 -99 0 -100 10 -119 65 -119 55 0 65
19 65 119 0 54 -4 91 -12 99 -7 7 -30 12 -53 12 -23 0 -46 -5 -53 -12z m78
-98 c0 -79 0 -80 -25 -80 -24 0 -25 2 -25 73 0 79 3 87 32 87 16 0 18 -9 18
-80z"/>
<path d="M2582 3080 c0 -14 2 -19 5 -12 2 6 2 18 0 25 -3 6 -5 1 -5 -13z"/>
<path d="M3303 3083 c-28 -19 -30 -37 -4 -28 35 11 32 -13 -4 -42 -49 -39 -45
-53 15 -53 28 0 50 5 50 10 0 6 -12 10 -26 10 -25 0 -24 2 18 36 63 53 62 52
48 69 -12 14 -15 13 -37 -6 -19 -18 -23 -20 -23 -6 0 23 -12 27 -37 10z"/>
<path d="M2572 3020 c0 -14 2 -19 5 -12 2 6 2 18 0 25 -3 6 -5 1 -5 -13z"/>
<path d="M2562 2960 c0 -14 2 -19 5 -12 2 6 2 18 0 25 -3 6 -5 1 -5 -13z"/>
<path d="M2552 2905 c0 -16 2 -22 5 -12 2 9 2 23 0 30 -3 6 -5 -1 -5 -18z"/>
<path d="M3050 2890 c6 -11 13 -20 16 -20 2 0 0 9 -6 20 -6 11 -13 20 -16 20
-2 0 0 -9 6 -20z"/>
<path d="M2542 2850 c0 -14 2 -19 5 -12 2 6 2 18 0 25 -3 6 -5 1 -5 -13z"/>
<path d="M2532 2785 c0 -16 2 -22 5 -12 2 9 2 23 0 30 -3 6 -5 -1 -5 -18z"/>
<path d="M3600 2585 c-15 -18 -5 -35 20 -35 10 0 22 5 25 10 7 11 -12 40 -25
40 -4 0 -13 -7 -20 -15z"/>
<path d="M1417 2576 c-7 -17 18 -40 33 -31 5 3 10 15 10 26 0 23 -35 27 -43 5z"/>
<path d="M1492 2573 c3 -16 19 -18 136 -21 127 -2 132 -2 132 18 0 19 -6 20
-136 20 -124 0 -135 -2 -132 -17z"/>
<path d="M3290 2570 c0 -20 5 -20 137 -18 122 3 138 5 141 21 3 15 -9 17 -137
17 -135 0 -141 -1 -141 -20z"/>
<path d="M1497 2524 c-3 -3 -3 -12 0 -20 4 -11 29 -14 109 -14 97 0 104 1 104
20 0 19 -7 20 -103 20 -57 0 -106 -3 -110 -6z"/>
<path d="M1987 2293 c-13 -12 -7 -33 8 -33 8 0 15 9 15 20 0 20 -11 26 -23 13z"/>
<path d="M3257 2118 c-15 -40 -27 -79 -27 -85 0 -8 14 -13 35 -13 19 0 35 -5
35 -11 0 -7 11 -8 31 -4 30 7 31 6 25 -19 -9 -36 0 -49 25 -36 22 12 25 45 5
57 -8 4 -14 17 -13 28 2 15 -4 20 -20 19 -19 0 -23 5 -23 27 0 25 -23 47 -33
31 -2 -4 -2 0 0 8 15 52 15 70 2 70 -9 0 -26 -30 -42 -72z m43 -54 c0 -8 -7
-14 -15 -14 -17 0 -18 2 -9 24 7 18 24 12 24 -10z"/>
<path d="M1704 2156 c-3 -8 -4 -29 -2 -48 3 -32 5 -33 53 -39 55 -6 44 -17
-20 -21 -33 -2 -41 -7 -43 -25 -3 -24 21 -33 33 -13 3 6 28 10 56 10 l49 0 0
75 0 75 -60 0 c-43 0 -62 -4 -66 -14z m94 -38 c3 -14 -4 -18 -31 -18 -31 0
-34 3 -30 21 7 26 56 23 61 -3z"/>
<path d="M2480 1985 c0 -8 7 -15 15 -15 8 0 15 7 15 15 0 8 -7 15 -15 15 -8 0
-15 -7 -15 -15z"/>
<path d="M1613 1955 c-35 -27 -40 -35 -28 -45 11 -9 22 -4 54 25 23 21 38 41
35 46 -8 14 -15 10 -61 -26z"/>
<path d="M3425 1969 c-6 -9 21 -38 37 -39 19 -1 15 20 -7 34 -16 10 -26 12
-30 5z"/>
<path d="M2880 1760 l0 -50 34 0 c25 0 35 -5 39 -19 6 -23 0 -31 -24 -31 -10
0 -21 9 -24 20 -3 11 -11 20 -16 20 -16 0 -21 -27 -9 -50 9 -18 19 -21 58 -18
l47 3 0 50 c0 49 0 50 -35 55 -23 3 -36 11 -38 23 -3 16 2 18 40 15 33 -2 43
0 43 12 0 11 -14 16 -57 18 l-58 3 0 -51z"/>
<path d="M1997 1741 c-25 -44 -26 -61 -5 -61 14 0 60 81 54 96 -9 24 -22 15
-49 -35z"/>
<path d="M2448 1713 c-2 -5 -2 -52 0 -105 3 -79 6 -96 18 -91 21 8 21 203 0
203 -8 0 -16 -3 -18 -7z"/>
<path d="M1930 1641 c-14 -27 -13 -41 4 -41 17 0 48 39 40 52 -9 15 -33 9 -44
-11z"/>
<path d="M3006 1631 c-10 -16 5 -42 23 -39 21 4 21 42 -1 46 -9 2 -19 -1 -22
-7z"/>
<path d="M2457 1483 c-4 -3 -7 -21 -7 -40 0 -26 4 -33 20 -33 17 0 20 7 20 40
0 38 -14 52 -33 33z"/>
<path d="M3521 3662 c-55 -51 -73 -73 -68 -85 9 -24 36 -32 58 -19 16 10 26 3
76 -54 85 -96 193 -258 193 -289 0 -20 -23 5 -63 68 -58 92 -146 198 -189 228
l-33 24 25 -31 c14 -17 48 -58 76 -91 60 -71 154 -213 174 -263 8 -19 25 -45
39 -58 34 -31 87 -230 108 -402 18 -149 24 -160 82 -160 65 0 67 5 53 127 -12
112 -57 297 -92 377 -17 40 -23 46 -48 46 -27 0 -33 7 -76 98 -56 114 -132
230 -216 326 -33 38 -60 73 -60 76 0 4 8 15 19 24 18 16 21 14 74 -46 73 -84
180 -228 218 -294 27 -48 34 -54 62 -53 71 1 72 6 16 104 -94 165 -298 415
-338 415 -9 0 -49 -31 -90 -68z"/>
<path d="M3770 2915 c0 -3 8 -47 17 -97 13 -70 17 -149 18 -320 0 -125 4 -220
8 -213 20 36 28 189 18 321 -9 118 -45 314 -57 314 -2 0 -4 -2 -4 -5z"/>
<path d="M3956 2372 c-3 -5 -10 -42 -16 -83 -16 -103 -58 -261 -92 -344 -138
-333 -410 -620 -736 -776 -62 -30 -82 -45 -80 -57 6 -31 48 -24 141 22 271
132 500 349 656 621 97 169 170 399 174 549 2 66 0 71 -20 74 -11 2 -24 -1
-27 -6z"/>
<path d="M1664 1319 c-19 -21 -19 -21 14 -49 93 -78 328 -183 495 -223 80 -19
120 -21 307 -21 248 1 323 13 328 53 6 39 -9 43 -114 25 -129 -21 -370 -14
-494 15 -154 35 -300 97 -436 182 -34 22 -66 39 -71 39 -5 0 -18 -9 -29 -21z"/>
</g>
</svg>