<?xml version="1.0" standalone="no"?>
<!DOCTYPE svg PUBLIC "-//W3C//DTD SVG 20010904//EN"
 "http://www.w3.org/TR/2001/REC-SVG-20010904/DTD/svg10.dtd">
<svg version="1.0" xmlns="http://www.w3.org/2000/svg"
 width="1024.000000pt" height="1024.000000pt" viewBox="0 0 1024.000000 1024.000000"
 preserveAspectRatio="xMidYMid meet">

<g transform="translate(0.000000,1024.000000) scale(0.100000,-0.100000)"
fill="#000000" stroke="none">
<path d="M0 5120 l0 -5120 5120 0 5120 0 0 5120 0 5120 -5120 0 -5120 0 0
-5120z m5540 3345 c267 -35 599 -122 865 -227 174 -68 404 -189 384 -201 -2
-1 -42 -20 -89 -42 -156 -74 -283 -187 -379 -339 -17 -28 -31 -44 -31 -36 0
30 -93 202 -150 278 -136 181 -329 312 -583 397 -129 43 -248 64 -411 72
l-129 6 6 -174 c7 -243 46 -385 155 -572 160 -272 419 -443 742 -492 171 -26
173 -25 144 62 -74 220 -271 465 -531 662 -15 11 -21 19 -13 17 8 -3 56 -17
105 -32 218 -64 385 -193 469 -360 49 -98 58 -159 63 -441 5 -251 4 -263 -13
-263 -11 -1 -89 -1 -175 -1 -182 0 -162 11 -238 -130 -28 -53 -57 -101 -64
-106 -14 -12 -136 -43 -166 -43 -18 0 -57 26 -152 102 l-36 29 -149 -87 c-82
-47 -155 -90 -161 -96 -9 -7 -13 -43 -13 -112 l0 -101 -111 -112 -112 -113
-104 -6 -105 -7 -59 -89 -60 -88 -162 0 c-183 0 -253 -12 -348 -61 -74 -37
-142 -98 -221 -200 -32 -42 -76 -88 -96 -103 -77 -53 -100 -56 -421 -56 -206
1 -291 4 -278 11 18 11 22 53 11 121 -6 31 -11 37 -39 42 -28 6 -34 12 -38 39
-3 19 2 43 10 58 15 25 14 29 -23 92 -35 58 -43 66 -77 71 -45 8 -64 41 -45
82 7 16 8 28 2 32 -48 35 -111 72 -123 72 -8 0 -25 -9 -37 -21 l-22 -21 -54
20 c-44 16 -54 24 -56 46 -4 36 -38 48 -121 44 -66 -3 -66 -3 -77 -37 -18 -54
-104 -80 -139 -41 -25 27 -38 25 -106 -16 -58 -35 -59 -36 -57 -77 3 -40 1
-43 -44 -67 -36 -19 -52 -35 -69 -72 -19 -41 -27 -48 -51 -48 -36 0 -36 10 1
159 165 659 512 1241 1006 1691 159 145 402 321 598 435 59 34 83 29 62 -12
-8 -15 -18 -40 -24 -54 -8 -22 -18 -27 -60 -33 l-51 -7 0 -93 c0 -102 2 -106
60 -106 35 0 54 -18 80 -77 l20 -46 -25 -38 c-14 -21 -25 -45 -25 -52 0 -7 22
-38 49 -68 l49 -54 62 32 c56 29 63 30 88 17 15 -8 34 -14 43 -14 23 0 34 -17
54 -78 l18 -53 86 3 86 3 18 56 c18 54 21 58 70 77 l52 19 51 -28 c28 -16 55
-29 61 -29 5 0 33 26 61 59 l51 58 -30 47 -29 47 27 57 c27 56 29 57 81 66
l52 9 0 83 c0 108 -3 114 -54 114 l-42 0 -31 67 -32 68 25 48 c13 27 24 52 24
56 0 12 -70 90 -89 101 -13 6 -32 2 -69 -15 l-51 -24 -51 25 c-83 40 -72 54
83 97 257 72 488 117 692 136 150 14 587 6 735 -14z m-1566 -410 c75 -44 126
-137 126 -230 0 -51 -38 -131 -81 -172 -123 -116 -333 -74 -405 81 -58 125 -5
273 121 333 70 34 170 29 239 -12z m3011 -418 c-259 -135 -423 -290 -515 -490
-16 -34 -32 -75 -36 -91 l-7 -28 204 5 c172 3 216 8 278 26 219 65 406 198
539 383 31 43 60 78 64 78 12 0 194 -190 273 -285 245 -295 465 -683 595
-1051 45 -127 115 -419 139 -576 27 -182 44 -467 36 -618 -7 -137 -23 -311
-32 -349 -6 -22 -7 -21 -23 18 -25 64 -67 110 -124 137 -48 22 -62 24 -242 24
-213 0 -262 -10 -315 -62 -92 -93 -82 -219 19 -226 38 -3 47 1 95 47 61 58 92
64 156 31 l38 -19 34 24 c62 47 152 19 165 -50 13 -71 -46 -137 -109 -121 -35
8 -85 52 -90 79 -4 19 -4 19 -6 -4 0 -15 -8 -30 -17 -33 -10 -4 -13 -2 -8 6 4
7 -8 1 -26 -12 -23 -17 -35 -20 -38 -12 -2 8 -8 10 -15 4 -7 -6 -42 -12 -78
-14 -45 -2 -75 -10 -93 -23 -67 -48 -89 -55 -177 -55 l-86 0 -6 -57 c-3 -31
-4 -60 -1 -65 3 -4 45 -8 95 -8 l89 0 0 -65 c0 -77 9 -85 96 -85 80 0 94 15
94 97 l0 63 249 0 249 0 -25 -82 c-28 -91 -110 -329 -116 -334 -2 -2 -9 14
-16 37 -15 51 -77 114 -121 122 -18 4 -130 7 -249 7 -204 0 -219 -1 -256 -22
-35 -19 -60 -23 -205 -28 -150 -5 -170 -8 -214 -30 -125 -64 -203 -210 -221
-417 l-7 -83 -108 0 c-101 0 -110 -2 -124 -22 -9 -12 -16 -39 -16 -60 0 -61
38 -94 150 -132 l95 -31 6 -130 c8 -144 29 -226 81 -307 44 -70 136 -151 198
-174 l54 -21 -55 -39 c-30 -22 -101 -72 -159 -112 -96 -66 -108 -71 -142 -65
-32 5 -38 10 -38 30 0 32 -25 80 -49 92 -10 6 -45 14 -76 17 l-57 7 2 231 c3
284 5 262 -25 291 l-24 25 -316 0 -315 0 0 90 0 90 34 0 c47 0 76 37 76 96 l0
44 41 -6 c48 -8 59 3 59 56 0 29 -7 40 -40 64 -21 16 -36 34 -33 40 26 44 85
136 88 136 2 0 30 6 62 14 32 8 70 17 85 20 23 5 41 -5 114 -64 48 -38 90 -70
94 -70 9 0 271 150 299 172 22 17 24 24 22 110 0 55 4 104 12 119 6 15 57 74
112 132 l100 104 60 7 c104 13 155 27 176 49 20 21 129 237 143 284 6 18 -4
36 -44 84 -71 85 -86 119 -74 166 8 34 16 40 102 82 68 34 94 52 99 69 3 13 2
100 -2 195 l-7 173 -95 49 c-97 50 -113 67 -113 121 0 23 75 132 91 133 4 1
30 -15 59 -34 58 -39 75 -43 84 -19 5 12 14 14 38 9 41 -9 58 -22 58 -45 0
-23 44 -34 104 -25 35 6 46 12 48 28 2 14 16 26 41 36 33 12 39 12 55 -3 26
-22 37 -20 89 15 37 26 44 35 39 55 -5 19 -2 25 17 29 13 4 40 26 60 50 34 40
36 47 31 88 -6 43 -6 44 27 53 32 9 34 13 39 59 7 69 1 95 -21 95 -36 0 -54
80 -22 98 15 9 15 15 -10 68 -17 38 -33 60 -44 60 -10 1 -23 2 -28 3 -19 2
-46 59 -40 83 5 19 -2 28 -37 49 -63 38 -76 41 -88 19 -9 -17 -14 -18 -53 -6
-33 9 -43 17 -46 36 -4 34 -16 40 -88 40 -62 0 -63 -1 -77 -34 -11 -26 -21
-34 -45 -38 -19 -3 -36 1 -42 9 -17 20 -41 16 -92 -17 -39 -24 -46 -34 -42
-52 7 -30 -35 -79 -62 -72 -15 4 -25 -6 -46 -44 -31 -58 -33 -69 -11 -93 24
-27 11 -49 -30 -49 -21 0 -36 -6 -40 -15 -4 -11 -23 -15 -80 -15 l-74 0 -108
110 c-60 61 -113 123 -117 138 -5 15 -6 70 -2 122 4 78 11 106 36 157 46 95
132 159 249 184 73 16 80 7 27 -30 -102 -70 -239 -232 -262 -308 -6 -23 -5
-23 87 -23 298 0 478 196 504 545 l7 95 -130 0 c-272 0 -449 -90 -543 -275
-30 -60 -35 -80 -38 -156 l-4 -87 -36 25 c-21 14 -80 47 -133 73 l-95 48 -45
-35 c-24 -19 -63 -48 -87 -65 l-43 -29 -69 17 c-52 14 -70 23 -74 39 -3 11 -6
147 -6 303 0 318 9 391 63 501 41 82 142 186 227 233 105 59 250 94 395 96
l50 1 -100 -52z m-792 -1332 c229 -40 436 -138 631 -299 l70 -58 -100 -95
c-54 -53 -148 -141 -209 -196 -60 -56 -198 -186 -305 -290 l-195 -190 -5 294
c-3 162 -9 300 -14 308 -17 26 -72 41 -105 30 -58 -20 -61 -38 -61 -356 l0
-288 -30 -17 c-52 -30 -72 -73 -66 -148 l4 -65 -103 -105 c-109 -111 -125
-141 -105 -191 12 -29 54 -59 82 -59 30 0 83 40 187 142 98 97 114 109 161
119 62 13 116 62 126 114 5 30 43 70 247 263 606 573 660 623 710 649 28 14
31 14 44 -3 16 -22 9 -49 -26 -93 -57 -73 -56 -70 -39 -99 9 -15 32 -66 52
-114 110 -267 125 -569 40 -840 -32 -103 -119 -272 -184 -359 -81 -108 -244
-257 -351 -320 -466 -277 -1028 -240 -1444 94 -167 134 -296 310 -374 511 -62
158 -76 242 -76 446 1 202 17 290 85 463 148 379 530 680 954 751 110 19 295
19 399 1z m1801 -119 c90 -52 146 -148 146 -247 0 -71 -52 -165 -114 -206 -68
-47 -117 -58 -193 -45 -180 30 -270 222 -183 392 23 46 98 113 142 128 55 18
151 8 202 -22z m-5520 -395 c113 -55 194 -178 204 -312 3 -47 1 -69 -7 -69
-23 0 -318 158 -349 188 -67 63 -152 65 -223 5 -66 -56 -89 -173 -50 -259 40
-89 199 -113 260 -40 19 22 38 15 141 -52 132 -85 127 -78 72 -123 -62 -52
-129 -73 -222 -72 -109 1 -179 30 -256 107 -89 90 -108 136 -112 269 -3 103
-1 113 26 172 37 78 86 133 150 168 121 66 252 72 366 18z m1981 -236 c66 -72
73 -92 48 -142 -14 -31 -34 -47 -103 -84 l-85 -45 -3 -191 -2 -191 77 -42 c98
-54 111 -65 119 -106 5 -28 0 -44 -27 -86 -19 -29 -49 -70 -68 -91 l-35 -38
28 -57 c47 -97 134 -247 153 -264 11 -10 55 -21 112 -28 l94 -12 106 -110 c58
-61 110 -117 114 -124 5 -8 8 -59 8 -114 l0 -99 32 -24 c35 -26 183 -114 246
-146 l39 -21 89 66 88 66 62 -6 c33 -4 76 -11 95 -17 32 -11 68 -42 68 -60 0
-9 -294 -105 -505 -165 -178 -50 -239 -79 -318 -153 -76 -72 -103 -81 -219
-80 l-78 1 0 348 c0 193 -5 371 -10 401 -23 120 -100 223 -208 276 -55 27 -62
28 -249 32 -185 3 -193 4 -193 23 0 29 -29 73 -60 92 -38 22 -108 20 -147 -4
-32 -19 -63 -66 -63 -93 0 -12 -34 -15 -187 -19 -161 -4 -194 -8 -233 -25 -95
-43 -165 -128 -195 -235 -14 -51 -14 -44 -13 152 2 226 -1 242 -58 260 -35 12
-70 2 -96 -26 -10 -12 -19 -46 -23 -91 l-8 -73 -78 0 -79 0 0 69 c0 90 -21
121 -85 121 -36 0 -48 -5 -69 -31 -22 -26 -26 -40 -26 -95 l0 -64 -85 0 -85 0
0 30 c0 23 7 33 30 45 l30 16 0 283 0 284 37 7 c21 4 49 13 63 20 22 11 29 10
59 -11 20 -13 39 -20 45 -16 94 70 108 86 103 119 -5 29 0 38 59 95 111 107
91 102 454 109 295 5 319 7 383 29 90 31 182 93 235 161 169 213 221 240 460
236 l102 -2 55 -60z m-2725 -45 c0 -19 -19 -40 -37 -40 -14 0 -19 71 -6 83 9
10 43 -23 43 -43z m20 -251 c7 -11 9 -37 5 -58 -5 -32 -1 -45 28 -86 22 -33
43 -52 63 -57 43 -11 62 -36 66 -88 3 -43 6 -47 57 -77 l54 -33 34 21 c32 20
37 21 81 7 l47 -15 3 -259 c3 -232 -11 -641 -24 -687 -5 -16 -19 -17 -147 -15
l-142 3 -23 58 c-54 137 -125 439 -156 667 -18 132 -36 399 -36 543 l0 97 40
0 c30 0 42 -5 50 -21z m2179 -1182 c49 -18 74 -21 196 -19 232 4 245 -10 245
-281 l0 -177 -84 56 c-47 31 -89 53 -94 50 -5 -3 -12 -29 -15 -58 -5 -46 -18
-95 -41 -149 -5 -11 7 -21 48 -38 168 -70 321 -228 388 -402 l23 -61 125 4
c149 5 184 18 280 102 81 70 116 86 287 135 76 21 216 62 311 91 95 29 179 50
186 47 16 -6 36 -67 36 -109 0 -35 24 -58 61 -58 l30 0 -3 -87 -3 -88 -250 0
c-376 0 -371 0 -406 -34 l-29 -29 0 -245 0 -244 -39 -7 c-55 -9 -98 -47 -106
-96 l-7 -40 -269 0 -269 0 0 184 c0 101 -3 191 -6 200 -6 14 -78 16 -719 16
-392 0 -720 -3 -729 -6 -14 -5 -16 -30 -16 -175 0 -93 -2 -169 -5 -169 -9 0
-108 75 -207 157 -95 78 -391 371 -428 424 l-21 29 295 0 295 0 15 53 c17 59
92 181 153 248 52 58 160 132 231 158 l60 23 -19 49 c-11 28 -22 77 -26 110
-3 32 -9 59 -13 59 -5 0 -37 -18 -71 -40 -35 -22 -72 -44 -81 -50 -17 -10 -18
0 -18 159 0 275 8 285 237 288 100 1 159 6 175 14 77 42 197 44 297 6z m-1429
-67 c19 -19 20 -33 20 -393 0 -325 -2 -375 -16 -395 -23 -33 -60 -45 -100 -32
-64 22 -64 20 -64 423 0 353 1 365 21 391 17 22 28 26 70 26 36 0 54 -5 69
-20z m341 1 l24 -19 0 -376 0 -376 -27 -27 c-37 -37 -89 -37 -126 0 l-27 27 0
381 c0 365 1 381 19 395 29 21 109 18 137 -5z m5259 -275 l0 -94 -57 2 c-32 2
-97 4 -145 4 l-88 2 0 90 0 90 145 0 145 0 0 -94z m-460 -451 l0 -484 -139 2
c-139 2 -139 2 -178 32 -21 18 -51 57 -68 90 l-30 60 0 290 c0 324 6 359 68
429 52 59 76 66 220 66 l127 0 0 -485z m-5467 248 c-3 -104 -7 -189 -7 -190
-1 -1 -37 58 -80 133 l-78 134 22 55 22 55 64 0 64 0 -7 -187z m5927 -70 c0
-4 -21 -44 -47 -90 l-48 -83 -97 0 -98 0 0 90 0 90 145 0 c80 0 145 -3 145 -7z
m-1510 -698 l0 -85 -585 0 -585 0 0 79 c0 54 4 81 13 84 6 3 270 6 585 6 l572
1 0 -85z m-2750 -237 c39 -42 14 -108 -42 -108 -41 0 -68 25 -68 63 0 62 68
90 110 45z m2748 -110 l-3 -83 -540 -1 c-297 -1 -559 0 -582 3 l-43 6 0 73 c0
48 4 74 13 77 6 3 270 6 585 6 l573 1 -3 -82z m94 -279 c-25 -19 -212 -97
-346 -144 -258 -90 -514 -151 -806 -192 -182 -25 -691 -25 -880 0 -305 41
-611 118 -865 215 -162 62 -294 117 -303 126 -3 4 717 6 1600 4 884 -2 1604
-5 1600 -9z"/>
<path d="M4567 8164 c-31 -29 -57 -57 -57 -61 0 -5 26 -34 58 -66 l58 -57 62
56 c34 32 62 60 62 64 0 3 -28 31 -63 62 l-63 55 -57 -53z"/>
<path d="M6266 8089 c-20 -15 -26 -29 -26 -57 0 -43 7 -55 37 -71 33 -17 59
-13 89 12 20 17 27 33 27 57 0 24 -7 40 -27 57 -34 28 -65 29 -100 2z"/>
<path d="M4790 7881 c-25 -49 1 -101 52 -101 47 0 73 54 48 101 -8 14 -21 19
-50 19 -29 0 -42 -5 -50 -19z"/>
<path d="M3038 7586 c-32 -29 -58 -57 -58 -62 0 -11 113 -124 124 -124 16 0
116 104 116 120 0 17 -99 120 -115 120 -6 -1 -36 -25 -67 -54z"/>
<path d="M4665 7567 c-133 -34 -251 -117 -329 -230 -39 -57 -76 -154 -76 -199
l0 -28 85 0 85 0 24 55 c34 75 102 145 183 186 62 31 75 34 175 37 l109 4 25
50 c33 65 29 88 -20 112 -49 24 -191 31 -261 13z"/>
<path d="M5076 7343 c-13 -21 -40 -53 -59 -72 l-36 -34 -65 18 c-80 22 -174
17 -231 -13 -134 -69 -186 -234 -118 -372 l30 -61 -31 -23 c-17 -13 -36 -26
-42 -29 -14 -8 -57 56 -77 114 l-15 44 -81 3 c-93 3 -93 3 -60 -80 26 -67 96
-165 153 -215 85 -75 238 -132 353 -133 65 0 141 19 218 55 72 33 165 101 165
121 0 6 -12 17 -27 23 -16 6 -52 33 -82 59 l-53 47 31 48 c36 52 51 95 51 144
0 75 61 15 64 -62 1 -25 7 -49 12 -54 5 -5 31 -11 57 -14 58 -6 66 4 74 101 7
81 -20 201 -62 274 -33 58 -112 148 -131 148 -7 0 -25 -17 -38 -37z"/>
<path d="M2713 7234 c-63 -30 -117 -88 -152 -163 l-26 -56 0 -325 0 -325 33
-67 c36 -74 96 -133 170 -170 38 -18 68 -23 158 -26 l111 -4 5 -122 c6 -143
27 -205 90 -262 86 -78 191 -100 305 -66 137 42 202 134 211 298 l5 94 172 0
c206 0 246 10 316 80 78 78 80 92 77 497 l-3 348 -27 50 c-31 59 -57 84 -118
116 -45 24 -46 24 -448 27 l-402 3 -16 25 c-9 14 -36 36 -59 49 -40 24 -50 25
-196 25 -143 -1 -158 -2 -206 -26z m245 -171 c58 -37 78 -121 42 -180 -75
-123 -272 -50 -246 92 8 40 63 101 98 108 32 6 79 -2 106 -20z m572 -127 c0
-42 -4 -43 -182 -38 l-136 4 -4 34 -4 34 163 0 163 0 0 -34z m431 -4 c37 -41
41 -87 37 -372 -3 -204 -5 -239 -21 -268 -33 -60 -48 -62 -435 -62 l-348 0
-35 26 c-50 38 -65 42 -189 49 -131 7 -167 19 -206 71 -28 36 -29 41 -34 188
-3 83 -5 152 -4 154 1 2 245 3 542 2 485 0 540 1 546 16 16 41 9 46 -59 42
-36 -1 -65 -1 -65 2 0 3 12 23 25 45 17 27 25 55 25 86 0 25 3 49 8 53 4 5 47
6 97 3 84 -4 91 -7 116 -35z m-553 -968 c-3 -65 -7 -79 -27 -95 -35 -29 -65
-33 -104 -14 -43 20 -57 50 -57 125 l0 60 96 0 96 0 -4 -76z"/>
<path d="M3340 6543 c-33 -6 -50 -21 -50 -44 0 -24 30 -39 79 -39 44 0 67 24
56 59 -5 16 -38 34 -55 30 -3 -1 -16 -4 -30 -6z"/>
<path d="M3513 6540 c-25 -10 -32 -51 -10 -67 29 -23 48 -23 73 2 28 28 30 38
8 59 -17 18 -38 19 -71 6z"/>
<path d="M3700 6541 c-29 -5 -36 -11 -38 -35 -2 -16 2 -32 10 -37 23 -15 105
-10 122 7 43 42 -11 80 -94 65z"/>
<path d="M2970 6525 c-10 -12 -10 -21 -2 -40 11 -25 14 -25 131 -25 130 0 149
7 137 55 l-6 25 -124 0 c-99 0 -126 -3 -136 -15z"/>
<path d="M5538 6989 c-32 -32 -58 -61 -58 -65 0 -6 117 -124 124 -124 6 0 126
119 126 125 0 8 -121 125 -129 124 -3 -1 -32 -28 -63 -60z"/>
<path d="M2237 6494 c-12 -14 -41 -39 -64 -56 -24 -16 -43 -34 -43 -41 0 -7
30 -41 66 -76 l65 -64 65 64 c35 35 64 68 64 75 0 11 -113 124 -124 124 -4 0
-16 -12 -29 -26z"/>
<path d="M4460 6333 l-65 -65 39 -31 c22 -18 53 -47 70 -64 16 -18 32 -33 35
-33 3 0 37 30 76 66 l69 65 -69 65 c-38 35 -74 63 -80 63 -5 -1 -39 -31 -75
-66z"/>
<path d="M7856 6710 l-50 -50 49 -50 c27 -28 53 -50 57 -50 9 0 98 90 98 99
-1 10 -88 101 -97 101 -4 0 -30 -23 -57 -50z"/>
<path d="M8248 5378 c-27 -27 -48 -53 -48 -57 0 -10 90 -101 99 -101 3 0 28
23 56 50 l49 51 -54 53 -55 53 -47 -49z"/>
<path d="M7818 5273 c-28 -8 -48 -20 -48 -29 0 -8 4 -14 8 -14 5 0 25 -16 45
-37 42 -41 47 -72 20 -127 -13 -29 -14 -38 -3 -51 16 -20 50 -19 80 2 13 10
47 25 74 33 27 9 56 26 63 37 13 20 11 25 -32 70 -26 26 -60 67 -76 91 -34 47
-50 50 -131 25z"/>
<path d="M6483 3340 c-13 -5 -23 -15 -23 -22 0 -6 -25 -36 -55 -65 -49 -46
-55 -56 -49 -80 15 -67 68 -106 142 -106 61 0 95 28 103 84 3 24 11 61 19 82
16 42 10 59 -31 89 -30 22 -77 30 -106 18z"/>
<path d="M5895 6169 c-470 -51 -854 -372 -966 -807 -69 -271 -35 -559 97 -800
148 -272 418 -468 739 -538 387 -85 829 69 1080 376 172 210 266 486 251 735
-6 94 -33 233 -58 300 -12 34 -60 148 -64 154 -2 1 -42 -31 -91 -73 -48 -42
-93 -76 -100 -76 -17 0 -17 -2 12 -95 41 -128 52 -260 32 -378 -47 -278 -201
-490 -450 -622 -264 -141 -595 -123 -849 46 -245 162 -394 458 -374 745 25
369 256 656 610 759 233 67 486 26 690 -112 44 -30 86 -58 94 -60 12 -5 182
151 182 168 0 13 -142 111 -222 154 -189 100 -414 146 -613 124z"/>
<path d="M7823 6028 c-29 -14 -55 -70 -47 -103 9 -35 59 -75 96 -75 42 0 98
57 98 100 0 67 -81 110 -147 78z"/>
<path d="M4172 5513 c-7 -3 -18 -16 -23 -30 -13 -34 12 -73 46 -73 28 0 65 32
65 55 0 36 -51 63 -88 48z"/>
<path d="M3922 5263 c-7 -3 -21 -21 -31 -41 -25 -49 -58 -78 -101 -89 -33 -9
-35 -11 -35 -53 0 -41 3 -45 30 -53 52 -16 59 -22 94 -81 31 -51 37 -57 65
-54 25 2 36 13 63 60 25 42 41 59 61 64 54 11 70 23 77 54 9 39 -1 50 -63 70
-40 13 -50 22 -68 59 -29 60 -55 79 -92 64z"/>
<path d="M3280 5014 c-19 -8 -49 -26 -67 -40 l-32 -25 -53 27 c-75 39 -165 39
-231 1 -77 -45 -114 -107 -126 -207 -6 -54 -7 -55 -43 -61 -106 -17 -151 -128
-83 -206 l23 -28 546 0 546 0 31 32 c25 24 33 42 36 80 8 84 -54 148 -156 160
l-51 6 0 41 c0 83 -66 181 -145 217 -49 23 -146 24 -195 3z"/>
<path d="M4064 4616 c-48 -21 -60 -75 -24 -114 45 -48 130 -12 130 55 0 52
-53 82 -106 59z"/>
<path d="M4777 3492 c-25 -28 -22 -69 7 -88 33 -21 65 -15 90 19 19 26 19 30
5 55 -19 35 -76 43 -102 14z"/>
<path d="M1881 4654 l-54 -55 56 -56 56 -57 53 50 c29 27 55 52 57 57 3 7
-105 119 -112 116 -1 0 -26 -25 -56 -55z"/>
<path d="M1931 4271 c-42 -42 -15 -101 47 -101 25 0 35 6 48 31 15 30 15 33
-4 58 -25 33 -64 39 -91 12z"/>
<path d="M3709 3975 c-60 -19 -140 -91 -170 -152 -32 -67 -32 -169 0 -240 48
-108 155 -170 275 -161 232 19 341 295 187 471 -67 76 -197 112 -292 82z"/>
<path d="M3563 3351 c-89 -26 -180 -73 -239 -125 -52 -46 -137 -162 -149 -203
l-6 -23 620 0 c490 0 621 3 621 13 0 16 -33 70 -82 134 -71 93 -200 175 -327
208 -59 15 -66 15 -105 0 -51 -21 -147 -21 -206 -1 -54 19 -50 19 -127 -3z"/>
<path d="M3114 2905 c-9 -14 -22 -42 -29 -63 l-13 -37 716 -3 c393 -1 717 0
719 2 3 2 -8 31 -24 63 l-28 58 -662 3 -662 2 -17 -25z"/>
<path d="M4990 2839 c-25 -27 -47 -51 -49 -54 -2 -2 20 -28 48 -56 l53 -52 49
49 c27 26 49 51 49 54 0 6 -96 110 -101 109 -2 0 -24 -23 -49 -50z"/>
<path d="M7380 3548 c-46 -31 -61 -83 -37 -134 36 -75 140 -78 190 -4 63 92
-58 202 -153 138z"/>
<path d="M7403 3209 c-43 -12 -73 -53 -73 -98 0 -98 115 -144 183 -73 54 56
41 133 -27 166 -38 18 -38 18 -83 5z"/>
</g>
</svg>
