<?xml version="1.0" standalone="no"?>
<!DOCTYPE svg PUBLIC "-//W3C//DTD SVG 20010904//EN"
 "http://www.w3.org/TR/2001/REC-SVG-20010904/DTD/svg10.dtd">
<svg version="1.0" xmlns="http://www.w3.org/2000/svg"
 width="159.000000pt" height="159.000000pt" viewBox="0 0 159.000000 159.000000"
 preserveAspectRatio="xMidYMid meet">
<metadata>
Created by potrace 1.16, written by Peter Selinger 2001-2019
</metadata>
<g transform="translate(0.000000,159.000000) scale(0.100000,-0.100000)"
fill="#000000" stroke="none">
<path d="M0 795 l0 -795 795 0 795 0 0 795 0 795 -795 0 -795 0 0 -795z m981
526 c166 -53 309 -197 362 -366 28 -92 30 -235 3 -315 -33 -99 -77 -168 -148
-235 -113 -107 -240 -159 -388 -159 -247 0 -462 163 -534 403 -20 69 -21 208
-1 286 37 142 151 283 280 347 61 31 91 41 180 62 42 10 183 -3 246 -23z"/>
<path d="M725 1290 c-75 -16 -154 -51 -214 -95 -32 -24 -62 -48 -66 -55 -4 -6
12 -27 37 -50 41 -36 42 -39 26 -56 -16 -16 -19 -15 -62 20 l-45 36 -27 -45
c-32 -56 -64 -155 -64 -200 0 -33 2 -34 43 -37 34 -2 42 -7 42 -23 0 -16 -8
-21 -42 -23 -37 -3 -43 -6 -43 -27 0 -61 81 -245 108 -245 4 0 43 36 87 80 78
79 107 95 119 65 3 -10 -24 -43 -79 -96 -47 -45 -85 -88 -85 -94 0 -7 17 -24
38 -39 38 -26 58 -33 48 -17 -3 4 1 16 8 27 12 15 16 16 30 5 9 -7 16 -28 16
-46 0 -28 13 -45 36 -45 2 0 5 57 6 128 3 119 4 127 23 127 19 0 20 -8 23
-135 2 -92 6 -137 15 -142 7 -4 29 -8 50 -8 l37 0 0 111 c0 109 0 110 23 107
21 -3 22 -8 25 -110 l3 -108 32 0 c55 0 56 4 59 160 3 141 4 145 25 148 30 4
35 -19 31 -161 -2 -86 0 -117 9 -117 16 0 28 21 25 45 -2 11 4 29 12 40 12 16
16 17 30 6 9 -7 16 -20 16 -27 0 -21 12 -17 54 18 l39 32 -59 51 c-51 46 -57
54 -45 69 20 24 33 20 81 -29 24 -25 49 -45 55 -45 27 0 99 159 107 235 3 28
1 30 -37 35 -37 5 -41 9 -36 40 0 6 19 10 41 10 l41 0 -6 38 c-13 73 -37 148
-63 192 l-26 45 -14 -48 c-11 -39 -17 -47 -31 -42 -14 4 -35 -13 -81 -65 -53
-60 -65 -68 -81 -60 -10 6 -19 14 -19 19 0 4 27 39 60 76 33 38 58 70 55 73
-2 3 -11 0 -18 -6 -14 -12 -27 -7 -27 9 0 5 27 26 60 47 l60 38 -32 31 c-54
50 -121 90 -186 112 -71 24 -188 34 -247 21z m110 -175 c0 -16 -9 -21 -55 -28
-77 -10 -152 -50 -202 -106 -56 -62 -78 -125 -78 -223 0 -78 -9 -99 -35 -78
-24 20 -20 156 6 224 48 129 205 240 329 233 28 -2 35 -6 35 -22z m-7 -87 c7
-7 12 -20 12 -30 0 -11 7 -18 19 -18 22 0 71 -37 71 -54 0 -30 -23 -36 -57
-15 -32 20 -33 20 -33 1 0 -23 -25 -46 -40 -37 -5 3 -10 15 -10 25 0 28 -17
34 -30 10 -15 -29 -4 -56 28 -68 15 -5 48 -17 75 -27 56 -20 77 -46 77 -96 0
-43 -27 -81 -70 -99 -17 -7 -30 -20 -30 -30 0 -26 -32 -35 -47 -14 -7 9 -10
20 -8 25 3 4 -5 11 -17 15 -42 13 -78 45 -78 69 0 36 29 40 62 8 15 -15 29
-24 29 -20 1 4 3 12 4 17 1 6 3 15 4 21 2 21 45 4 51 -19 l5 -24 18 20 c28 31
14 58 -41 77 -98 35 -113 44 -129 83 -14 34 -14 39 3 72 11 20 35 43 57 53 22
11 37 26 37 36 0 31 18 39 38 19z"/>
</g>
</svg>
