<?xml version="1.0" standalone="no"?>
<!DOCTYPE svg PUBLIC "-//W3C//DTD SVG 20010904//EN"
 "http://www.w3.org/TR/2001/REC-SVG-20010904/DTD/svg10.dtd">
<svg version="1.0" xmlns="http://www.w3.org/2000/svg"
 width="1024.000000pt" height="1024.000000pt" viewBox="0 0 1024.000000 1024.000000"
 preserveAspectRatio="xMidYMid meet">
<metadata>
Created by potrace 1.16, written by Peter Selinger 2001-2019
</metadata>
<g transform="translate(0.000000,1024.000000) scale(0.100000,-0.100000)"
fill="#000000" stroke="none">
<path d="M4695 8710 c-3 -5 -6 -230 -5 -498 l1 -489 -133 -32 c-187 -46 -356
-109 -553 -206 -322 -159 -604 -369 -822 -614 -513 -575 -751 -1262 -694
-2001 22 -277 62 -473 146 -703 201 -556 552 -1006 1036 -1329 305 -204 590
-322 992 -412 l27 -6 0 -464 c0 -414 2 -465 16 -470 20 -8 288 -8 308 0 14 5
16 50 16 404 0 218 3 418 6 444 l7 46 143 0 144 0 2 -448 3 -447 145 -3 c80
-1 155 0 168 3 l22 5 0 439 c0 241 3 451 6 467 5 28 10 30 112 52 756 165
1441 701 1801 1411 79 156 143 319 186 476 35 129 85 384 85 437 l0 28 524 0
c467 0 526 2 541 16 13 13 15 40 13 177 l-3 162 -531 3 -531 2 -7 98 c-37 541
-236 1047 -583 1482 -87 110 -315 338 -423 424 -315 251 -720 453 -1065 531
-57 13 -109 26 -114 30 -7 4 -11 172 -11 491 0 267 -2 490 -5 495 -8 13 -962
12 -970 -1z m630 -649 l0 -293 -141 -2 -141 -1 -7 110 c-8 143 -8 413 0 454
l7 32 141 -3 141 -3 0 -294z m141 -656 c682 -90 1314 -496 1704 -1096 75 -116
198 -364 240 -483 157 -454 169 -940 34 -1411 -153 -535 -538 -1032 -1039
-1342 -114 -71 -343 -182 -460 -223 -122 -43 -297 -85 -435 -107 -154 -24
-519 -24 -668 0 -272 44 -504 120 -742 243 -312 163 -563 370 -782 644 -265
333 -448 784 -488 1205 -66 701 164 1348 659 1858 312 322 694 547 1114 656
101 27 252 55 347 64 103 11 410 6 516 -8z"/>
<path d="M5050 7143 c-729 -52 -1394 -496 -1730 -1155 -152 -297 -222 -583
-222 -913 -1 -558 194 -1036 587 -1444 318 -330 768 -556 1229 -617 179 -24
478 -14 641 20 371 78 660 214 947 445 84 68 265 252 331 339 201 261 340 578
397 907 114 649 -104 1316 -586 1799 -429 428 -1025 660 -1594 619z m210 -405
c59 -41 70 -76 70 -223 l0 -130 108 -21 c147 -29 226 -63 402 -173 12 -7 7
-18 -24 -58 -21 -26 -68 -87 -103 -135 -36 -49 -69 -88 -74 -88 -5 0 -32 14
-60 32 -52 32 -199 88 -232 88 -17 0 -18 -11 -16 -167 2 -93 -1 -179 -5 -193
-16 -49 -53 -87 -99 -100 -55 -15 -98 -6 -138 27 -57 48 -61 69 -60 261 l2
174 -38 -6 c-70 -12 -178 -73 -227 -127 -134 -149 -123 -386 23 -511 93 -79
178 -105 474 -143 105 -14 227 -34 270 -45 227 -59 406 -199 501 -393 53 -110
66 -166 66 -295 0 -120 -17 -190 -74 -307 -109 -222 -330 -378 -597 -422 l-99
-16 0 -135 c0 -150 -10 -187 -63 -224 -47 -34 -123 -31 -172 6 -55 43 -65 76
-65 224 l0 128 -122 23 c-173 31 -321 91 -426 169 l-23 18 106 137 c58 75 108
137 111 137 2 0 35 -16 73 -35 86 -44 168 -73 232 -81 l49 -7 0 163 c0 183 7
209 66 249 67 46 162 25 211 -49 22 -31 23 -43 23 -196 l0 -164 23 0 c81 0
220 78 274 153 135 188 72 445 -138 557 -89 47 -169 67 -434 105 -336 48 -426
82 -560 207 -292 272 -294 691 -6 979 129 128 293 208 504 244 l37 6 0 137 c0
119 3 141 20 170 44 71 144 95 210 50z m-1774 -1549 c60 -18 104 -85 104 -159
0 -101 -69 -171 -169 -172 -56 0 -99 19 -134 61 -86 103 -41 242 91 281 28 8
54 5 108 -11z m3539 -12 c72 -40 103 -135 70 -214 -30 -72 -78 -104 -156 -105
-58 0 -99 21 -142 74 -115 143 64 337 228 245z"/>
<path d="M1743 8469 l-23 -8 0 -759 c0 -634 2 -761 14 -771 9 -8 65 -11 177
-9 l164 3 3 578 2 577 1034 0 c934 0 1034 2 1040 16 3 9 6 94 6 190 0 131 -3
176 -12 179 -25 8 -2383 12 -2405 4z"/>
<path d="M6198 8469 c-16 -9 -18 -29 -18 -193 0 -158 2 -185 16 -190 9 -3 108
-6 220 -6 l204 0 0 -168 c0 -119 4 -173 13 -185 10 -14 36 -17 190 -18 126 0
182 3 192 11 13 11 15 70 15 374 0 268 -3 365 -12 374 -16 16 -794 17 -820 1z"/>
<path d="M7403 8463 c-17 -17 -18 -58 -17 -600 1 -320 5 -586 8 -592 5 -7 71
-11 197 -11 l189 0 0 -366 c0 -233 4 -372 10 -385 10 -18 23 -19 205 -19 l195
0 0 -148 c0 -102 4 -152 12 -160 18 -18 382 -17 397 2 8 9 10 142 9 472 l-3
459 -197 3 -198 2 0 189 c0 159 -3 192 -16 205 -13 13 -46 16 -200 16 l-184 0
0 463 c0 347 -3 466 -12 475 -8 8 -66 12 -195 12 -161 0 -185 -2 -200 -17z"/>
<path d="M8208 8469 c-17 -9 -18 -38 -18 -372 0 -199 4 -368 8 -375 7 -9 55
-12 208 -10 l199 3 3 369 c2 264 -1 373 -9 382 -9 11 -51 14 -193 14 -104 0
-188 -5 -198 -11z"/>
<path d="M3544 7781 c-39 -17 -74 -70 -74 -112 0 -112 113 -170 194 -98 57 50
61 121 8 180 -29 33 -89 47 -128 30z"/>
<path d="M2353 7673 c-10 -3 -13 -51 -13 -188 0 -136 3 -186 13 -192 20 -13
950 -4 959 10 5 7 7 93 5 192 l-2 180 -475 2 c-261 1 -481 -1 -487 -4z"/>
<path d="M2622 7046 c-33 -31 -37 -40 -37 -83 0 -60 24 -99 72 -119 65 -28
142 13 164 85 22 74 -40 151 -124 151 -29 0 -46 -8 -75 -34z"/>
<path d="M1867 6539 c-105 -55 -131 -216 -49 -302 50 -53 66 -57 259 -57 201
0 222 6 277 74 56 68 45 200 -20 257 -50 44 -76 49 -256 49 -153 -1 -177 -3
-211 -21z"/>
<path d="M1927 5899 c-62 -15 -112 -46 -155 -94 -136 -155 -65 -393 135 -451
98 -28 202 -1 279 74 109 106 106 290 -8 399 -62 60 -172 92 -251 72z"/>
<path d="M8363 5870 c-124 -29 -201 -146 -174 -263 16 -72 53 -121 114 -152
226 -112 438 174 261 352 -29 28 -59 47 -95 57 -57 17 -59 17 -106 6z"/>
<path d="M1387 5153 c-4 -3 -7 -77 -7 -163 0 -139 2 -159 18 -173 16 -15 52
-17 300 -17 242 0 283 2 296 16 13 13 16 42 16 164 0 82 -3 155 -6 164 -5 14
-42 16 -308 16 -167 0 -306 -3 -309 -7z"/>
<path d="M1915 4627 c-256 -78 -294 -406 -61 -530 33 -17 58 -22 126 -22 101
0 142 16 211 85 166 165 52 458 -184 475 -29 2 -70 -1 -92 -8z"/>
<path d="M8295 4466 c-89 -41 -136 -118 -137 -221 -1 -141 101 -245 239 -245
72 0 130 27 182 86 46 53 66 115 58 188 -6 63 -23 99 -69 145 -71 73 -178 92
-273 47z"/>
<path d="M2075 3521 l-350 -6 -3 -900 c-2 -837 -1 -901 15 -912 13 -10 103
-13 369 -13 307 0 355 2 368 16 13 13 16 43 16 170 0 88 -4 164 -10 175 -10
18 -23 19 -204 19 l-194 0 -3 428 c-2 235 -2 489 -1 565 l4 137 59 0 59 0 2
-417 3 -418 345 -3 c190 -1 355 0 368 3 l22 5 0 380 c0 373 0 380 -21 401 -29
29 -56 22 -188 -53 l-111 -62 0 -163 0 -163 -39 0 c-27 0 -41 5 -45 17 -4 9
-6 187 -6 396 1 235 -2 383 -8 389 -14 14 -54 15 -447 9z"/>
<path d="M8260 3523 c-164 -3 -226 -7 -232 -16 -4 -6 -8 -114 -8 -239 l0 -228
-302 0 c-167 0 -309 -4 -316 -9 -11 -6 -13 -57 -12 -235 l1 -226 -301 0 c-278
0 -300 -1 -301 -17 -1 -10 -1 -63 1 -119 1 -56 -1 -145 -5 -198 l-7 -96 -280
0 c-173 0 -287 -4 -299 -10 -18 -10 -19 -23 -19 -215 0 -192 1 -205 19 -215
13 -7 408 -10 1209 -10 1076 0 1190 2 1196 16 3 9 6 420 6 914 l0 898 -22 6
c-13 3 -41 5 -63 4 -22 -2 -141 -4 -265 -5z"/>
<path d="M3348 2604 c-80 -43 -76 -185 7 -220 44 -18 69 -18 106 1 61 32 86
113 54 175 -28 55 -109 76 -167 44z"/>
<path d="M3080 2050 c-7 -13 -10 -78 -8 -181 3 -127 7 -162 18 -169 18 -12
1040 -13 1058 -2 9 7 12 51 10 188 l-3 179 -532 3 c-526 2 -532 2 -543 -18z"/>
<path d="M2672 1990 c-49 -48 -49 -129 -2 -180 24 -26 35 -30 80 -30 46 0 56
4 86 34 30 30 34 40 34 86 0 46 -4 56 -34 86 -30 30 -40 34 -84 34 -43 0 -55
-5 -80 -30z"/>
</g>
</svg>
