<?xml version="1.0" standalone="no"?>
<!DOCTYPE svg PUBLIC "-//W3C//DTD SVG 20010904//EN"
 "http://www.w3.org/TR/2001/REC-SVG-20010904/DTD/svg10.dtd">
<svg version="1.0" xmlns="http://www.w3.org/2000/svg"
 width="1080.000000pt" height="1080.000000pt" viewBox="0 0 1080.000000 1080.000000"
 preserveAspectRatio="xMidYMid meet">

<g transform="translate(0.000000,1080.000000) scale(0.100000,-0.100000)"
fill="#000000" stroke="none">
<path d="M0 5400 l0 -5400 5400 0 5400 0 0 5400 0 5400 -5400 0 -5400 0 0
-5400z m5888 3794 l92 -7 1 -476 c0 -262 4 -496 7 -521 l7 -45 124 -32 c363
-93 700 -255 1039 -498 140 -101 464 -426 579 -581 329 -444 504 -902 556
-1459 l12 -130 557 -3 557 -2 6 -43 c9 -56 2 -303 -8 -313 -17 -18 -145 -22
-622 -23 l-501 -1 -12 -92 c-64 -472 -251 -928 -537 -1310 -398 -530 -950
-900 -1583 -1061 l-167 -42 -7 -40 c-4 -22 -7 -243 -7 -491 -1 -403 -3 -453
-17 -458 -9 -3 -87 -6 -173 -6 l-158 0 -6 128 c-4 70 -7 283 -7 475 l0 347
-150 0 -149 0 -5 -32 c-3 -18 -8 -226 -10 -461 -4 -307 -8 -433 -17 -443 -9
-11 -44 -14 -156 -14 -80 0 -153 5 -164 10 -18 10 -19 26 -19 495 l0 485 -27
6 c-436 96 -785 247 -1102 473 -265 190 -454 371 -631 606 -117 156 -185 266
-272 440 -167 334 -254 639 -289 1008 -15 162 -7 546 15 680 99 615 368 1139
816 1588 203 203 416 360 691 506 223 119 405 190 649 253 l145 37 1 364 c0
200 1 435 2 521 l2 157 68 4 c129 6 779 7 870 1z m1510 -268 c10 -9 12 -96 13
-383 0 -203 -3 -377 -7 -386 -9 -24 -56 -29 -233 -26 -114 3 -164 8 -173 17
-9 9 -14 62 -16 192 l-4 178 -216 4 c-120 1 -223 7 -229 11 -19 12 -18 380 0
395 18 16 180 20 542 15 229 -3 313 -7 323 -17z m-3021 1 c11 -11 11 -383 0
-394 -5 -4 -499 -9 -1098 -11 l-1089 -3 0 -610 0 -610 -179 3 c-99 2 -183 7
-188 11 -4 5 -9 368 -11 808 l-4 799 24 10 c28 12 2532 9 2545 -3z m3843 3
c13 -8 15 -79 19 -500 l3 -490 193 0 c167 0 194 -2 206 -17 11 -12 15 -65 17
-214 l3 -199 207 -2 207 -3 0 -488 c0 -423 -2 -489 -15 -497 -21 -13 -376 -13
-401 0 -17 10 -19 23 -19 164 l0 154 -200 3 c-162 3 -202 7 -215 19 -12 13
-16 76 -21 408 l-7 392 -198 0 -198 0 -6 33 c-3 17 -5 298 -3 623 2 483 6 594
17 607 12 15 39 17 205 17 105 0 198 -5 206 -10z m850 -16 c6 -15 10 -180 10
-399 l0 -373 -87 -8 c-89 -7 -326 1 -344 11 -5 4 -9 161 -9 385 0 331 2 381
16 394 13 13 46 16 210 16 l194 0 10 -26z m-5208 -731 c30 -27 48 -68 48 -108
0 -51 -60 -114 -115 -121 -80 -11 -148 71 -131 159 8 41 55 94 89 99 34 5 86
-8 109 -29z m-364 -277 c1 -120 -1 -193 -8 -200 -14 -14 -737 -29 -895 -19
l-120 8 -3 189 c-2 131 1 193 9 202 10 12 95 14 513 12 l501 -3 3 -189z m-600
-450 c71 -37 98 -105 66 -171 -32 -67 -109 -94 -174 -60 -39 20 -60 63 -60
123 0 41 5 52 33 79 48 46 87 54 135 29z m-488 -558 c144 -62 145 -297 2 -360
-39 -17 -64 -19 -236 -16 -213 3 -220 5 -273 74 -38 50 -45 151 -15 210 28 54
70 92 117 103 63 16 363 8 405 -11z m-182 -709 c175 -85 215 -328 77 -462 -58
-57 -131 -88 -204 -88 -115 -1 -211 52 -266 145 -93 158 -11 364 168 428 69
25 143 17 225 -23z m6716 -9 c63 -24 127 -87 146 -144 19 -58 8 -137 -26 -193
-75 -121 -247 -151 -350 -60 -118 103 -106 289 24 371 80 50 126 56 206 26z
m-6835 -754 c18 -21 11 -330 -7 -348 -18 -18 -602 -19 -624 0 -20 16 -30 149
-21 271 l6 91 317 0 c264 0 320 -2 329 -14z m102 -563 c69 -31 122 -84 154
-154 66 -147 -1 -323 -149 -390 -64 -29 -202 -27 -265 5 -173 88 -210 326 -73
470 20 21 64 52 97 68 52 25 68 29 125 25 36 -2 86 -13 111 -24z m6719 -139
c67 -20 153 -101 169 -160 29 -104 7 -189 -69 -264 -59 -60 -106 -80 -181 -80
-142 2 -242 108 -242 255 0 39 7 85 15 105 33 78 103 132 191 150 60 11 58 11
117 -6z m-6273 -1017 c4 -5 9 -191 11 -415 2 -269 7 -411 14 -419 6 -7 26 -13
44 -13 l34 0 0 170 0 170 33 20 c17 11 78 43 134 72 88 44 107 51 130 42 16
-5 30 -20 34 -34 4 -14 7 -199 8 -412 l1 -388 -22 -5 c-13 -3 -187 -4 -388 -3
l-365 3 -3 438 -2 437 -59 0 c-58 0 -59 -1 -65 -31 -8 -42 -8 -801 1 -1001 l6
-158 197 0 c168 0 200 -2 211 -16 9 -11 13 -60 13 -179 1 -145 -1 -166 -17
-182 -16 -16 -46 -18 -330 -21 -172 -2 -343 1 -382 5 l-70 8 -6 100 c-4 55 -4
486 -1 957 l5 858 206 3 c345 5 619 2 628 -6z m6418 -949 c0 -526 -4 -960 -8
-965 -5 -4 -575 -8 -1268 -8 -1109 0 -1261 2 -1269 15 -13 20 -13 420 0 440 8
13 57 16 313 19 l304 3 7 67 c3 36 6 134 6 217 0 129 2 153 16 158 9 3 150 6
314 6 l298 0 4 239 c2 132 6 242 10 246 3 4 153 9 332 12 l326 6 0 237 c0 183
3 240 13 248 16 14 115 18 387 18 l215 -1 0 -957z m-5415 -13 c119 -61 46
-265 -85 -241 -81 15 -123 96 -95 181 22 66 111 96 180 60z m725 -699 c4 -73
4 -161 0 -194 l-7 -60 -76 -8 c-122 -11 -1032 2 -1046 16 -16 15 -21 331 -6
359 11 21 13 21 569 21 l559 0 7 -134z m-1397 50 c34 -32 37 -39 37 -90 0 -49
-4 -59 -34 -90 -31 -32 -41 -36 -86 -36 -57 0 -88 17 -110 60 -46 90 10 190
108 190 40 0 53 -5 85 -34z"/>
<path d="M5317 8806 c-9 -22 -9 -494 0 -564 l6 -53 146 3 146 3 3 308 2 307
-67 0 c-38 0 -104 3 -149 6 -71 6 -82 5 -87 -10z"/>
<path d="M5185 7813 c-267 -32 -545 -117 -800 -243 -273 -135 -486 -291 -707
-518 -193 -199 -324 -380 -443 -612 -521 -1020 -243 -2282 665 -3014 335 -270
784 -467 1209 -531 136 -21 568 -20 710 1 147 22 386 84 511 134 784 310 1380
988 1555 1770 78 346 82 683 14 1025 -41 206 -94 358 -198 571 -166 337 -370
597 -655 837 -372 311 -794 503 -1257 571 -98 15 -510 21 -604 9z m600 -303
c622 -107 1169 -465 1518 -995 78 -118 197 -363 240 -495 89 -268 124 -532
107 -803 -14 -218 -46 -378 -115 -577 -109 -311 -254 -546 -484 -783 -218
-224 -371 -337 -626 -462 -205 -101 -407 -167 -620 -204 -203 -35 -547 -31
-749 9 -514 103 -983 382 -1297 773 -336 417 -489 847 -489 1370 0 354 60 616
213 931 139 286 302 499 547 715 477 422 1158 624 1755 521z"/>
<path d="M5394 7112 c-23 -11 -50 -35 -62 -54 -20 -32 -22 -49 -22 -180 l0
-144 -126 -31 c-283 -71 -491 -225 -599 -447 -142 -290 -77 -607 171 -835 127
-116 241 -157 579 -206 334 -49 462 -91 556 -185 138 -138 156 -348 43 -512
-47 -68 -190 -151 -275 -160 l-34 -3 -5 175 c-5 187 -9 200 -60 244 -75 63
-208 34 -242 -53 -5 -14 -9 -101 -9 -193 0 -92 -3 -169 -7 -172 -20 -12 -166
30 -261 75 -85 40 -106 47 -119 37 -22 -19 -212 -264 -212 -275 0 -5 36 -31
81 -58 92 -56 261 -116 394 -140 50 -9 98 -18 107 -21 14 -4 17 -25 20 -154 3
-132 5 -152 24 -176 71 -96 203 -97 259 -3 17 29 21 58 25 184 l5 149 70 12
c315 53 535 204 656 449 70 142 82 200 77 360 -4 104 -9 142 -28 190 -77 202
-233 366 -430 451 -99 43 -200 65 -445 99 -207 28 -343 61 -410 100 -58 34
-131 114 -157 172 -18 40 -22 67 -23 153 0 99 2 109 32 171 19 39 52 84 79
109 49 45 170 107 226 116 l36 6 -1 -188 c-1 -218 4 -236 79 -280 80 -47 180
-19 218 60 13 27 16 69 16 215 0 150 3 183 15 187 22 9 139 -33 232 -81 l81
-43 20 22 c53 57 192 252 190 265 -4 17 -147 100 -243 140 -39 17 -121 40
-182 53 l-111 22 -4 147 c-3 130 -6 151 -24 175 -51 69 -126 90 -200 56z"/>
<path d="M3520 5465 c-107 -61 -130 -184 -53 -276 78 -92 235 -81 293 22 48
86 17 210 -63 251 -64 32 -124 33 -177 3z"/>
<path d="M7235 5464 c-45 -23 -66 -45 -86 -89 -33 -72 -19 -135 45 -197 117
-114 300 -35 298 128 -1 78 -40 139 -105 163 -41 16 -117 13 -152 -5z"/>
</g>
</svg>
